<svg width="60" height="46" viewBox="0 0 60 46" fill="none" xmlns="http://www.w3.org/2000/svg">
<path d="M16.6596 16.3223C14.8176 16.3223 13.3224 17.8147 13.3224 19.6576C13.3224 21.5005 14.8176 22.9939 16.6596 22.9939C18.5016 22.9939 19.993 21.5005 19.993 19.6576C19.993 17.8147 18.5017 16.3223 16.6596 16.3223Z" fill="#4B4B4B"/>
<path d="M29.9991 16.3223C28.1571 16.3223 26.6637 17.8147 26.6637 19.6576C26.6637 21.5005 28.157 22.9939 29.9991 22.9939C31.841 22.9939 33.3345 21.5005 33.3345 19.6576C33.3345 17.8147 31.841 16.3223 29.9991 16.3223Z" fill="#4B4B4B"/>
<path d="M43.3384 16.3223C41.4965 16.3223 40.0031 17.8147 40.0031 19.6576C40.0031 21.5005 41.4964 22.9939 43.3384 22.9939C45.1823 22.9939 46.6737 21.5005 46.6737 19.6576C46.6737 17.8147 45.1823 16.3223 43.3384 16.3223Z" fill="#4B4B4B"/>
<path d="M59.9961 19.3136C59.943 14.1458 57.9191 9.2981 54.2976 5.66354C50.6647 2.01164 45.8247 0 40.6626 0H19.3335C8.67373 0.00199218 0.001875 8.67373 0 19.3307C0.001875 29.9887 8.67373 38.6623 19.3335 38.6651H36.899C37.1775 38.6651 37.3254 38.7836 37.4012 38.8831C37.5812 39.1237 37.5017 39.461 37.4732 39.5567C37.3614 39.9537 37.079 40.5061 36.5275 41.4025C36.1012 42.1055 35.7088 42.6977 35.6236 42.8238C35.0285 43.7163 34.8239 44.4725 35.0457 44.9538C35.2143 45.3168 35.6312 45.5404 36.2888 45.618C36.5086 45.6436 36.8156 45.6607 37.1093 45.6607C37.261 45.6607 37.4107 45.6559 37.5395 45.6456C38.9002 45.5291 40.7385 45.313 42.8875 44.6678C46.02 43.7259 50.5113 41.7294 54.1176 37.5641C57.976 33.1211 60.0095 26.9594 60 19.7438L59.9961 19.3136ZM54.0133 31.4003C52.0974 35.2151 49.0937 38.124 45.0857 40.0485C43.7306 40.6956 42.2772 41.212 40.7687 41.5835L40.3784 41.6792L40.6323 41.1277C40.7251 40.9287 40.8181 40.7308 40.89 40.5232C41.0302 40.0968 41.1686 39.6287 41.1762 39.0204C41.1762 38.5144 41.0644 38.0026 40.8503 37.5413C40.5111 36.7965 39.8574 36.1409 39.0576 35.7429C38.2408 35.3337 37.2782 35.1346 36.1165 35.1346H19.3335C15.117 35.1346 11.1488 33.4906 8.16021 30.5059C5.17546 27.5192 3.5305 23.5501 3.5305 19.3307C3.5305 15.1142 5.17546 11.1459 8.16021 8.1574C11.1487 5.17358 15.117 3.52956 19.3335 3.52956H40.6626C44.8677 3.5305 48.8228 5.17358 51.798 8.15541C54.7638 11.1364 56.422 15.1121 56.4675 19.3487L56.4694 19.7438C56.4675 24.2304 55.6412 28.1522 54.0133 31.4003Z" fill="#4B4B4B"/>
</svg>
