<svg width="64" height="38" viewBox="0 0 64 38" fill="none" xmlns="http://www.w3.org/2000/svg">
<path d="M59.0685 29.5138C58.1759 26.4161 57.2853 23.3165 56.3946 20.2189C56.1036 19.211 55.8126 18.2033 55.5235 17.1935L53.1055 19.6115C53.8888 22.6955 54.6719 25.7795 55.4551 28.8654C55.8419 30.3849 54.8281 31.7365 53.1621 31.217C50.4336 30.0841 47.4258 29.2873 44.4708 29.133C41.1114 28.9611 37.67 29.6486 34.5743 30.9396C34.2246 31.0841 31.8888 32.7658 31.795 31.5725C31.7443 28.7834 31.6915 25.9944 31.6408 23.2053C31.5334 17.4435 31.4279 11.6838 31.3204 5.92201C31.3145 5.59188 32.1114 5.42588 32.2755 5.36338C33.5803 4.86926 34.9454 4.52938 36.3204 4.30676C39.67 3.76188 42.9669 4.04113 46.2423 4.87126C47.2853 5.13688 48.379 5.46113 49.1485 6.13301L50.7033 4.58026C50.1974 4.19738 49.6329 3.87326 49.0294 3.60563C46.2501 2.36151 42.7228 1.86926 39.7071 1.79901C36.4864 1.72288 33.1954 2.22676 30.1485 3.27363C29.5548 3.47676 28.584 2.93763 27.9766 2.77363C27.2618 2.58026 26.5391 2.41813 25.8106 2.28138C24.2051 1.98451 22.5763 1.82238 20.9434 1.79701C17.8243 1.74813 14.6368 2.34588 11.6563 3.24238C11 3.48851 11.4688 3.31463 11.6153 3.26001C9.7559 3.96313 7.71677 5.11163 7.1309 7.15063C6.9844 7.66038 6.83602 8.17013 6.68952 8.67988C5.94727 11.26 5.20515 13.8381 4.4629 16.4181C3.44727 19.9455 2.43365 23.4709 1.41802 26.9963C0.828147 29.049 -0.341729 31.6858 0.0957715 33.8439C0.630896 36.5158 3.24427 37.7463 5.76965 37.2325C6.65827 37.0489 7.47277 36.6388 8.3204 36.336C9.7364 35.8281 11.1856 35.4005 12.6603 35.0938C16.211 34.3574 19.8165 34.748 23.3068 35.6485C24.086 35.8496 27.006 36.3536 27.09 37.2246C27.1701 38.0371 28.1036 37.8164 28.6916 37.8164C29.2756 37.8164 29.8596 37.8164 30.4436 37.8164C30.9788 37.8164 31.8753 38.0019 32.3831 37.7793C32.8929 37.5585 32.5004 37 32.9808 36.791C33.635 36.5078 34.3128 36.2734 34.9925 36.0625C36.5824 35.5664 38.2151 35.1973 39.8636 34.957C43.389 34.4434 46.721 34.8144 50.1059 35.8828C52.0883 36.5078 54.0101 37.6601 56.1606 37.2754C59.0923 36.7559 60.2915 33.7598 59.522 31.0879C59.383 30.5586 59.2189 30.0371 59.0685 29.5138ZM28.3126 12.7715C28.1954 18.9649 28.0821 25.1563 27.9669 31.3496C27.959 31.7638 27.8458 32.0215 27.3849 32.0098C24.877 30.5195 21.9005 29.6581 19.0216 29.2949C15.6388 28.8671 12.3283 29.3281 9.08615 30.334C8.08027 30.6445 6.95527 31.3281 5.8889 31.3281C4.66815 31.3281 3.95915 30.2421 4.2444 29.1074C4.99052 26.1758 5.73265 23.2421 6.47877 20.3105C7.35377 16.8633 8.22677 13.414 9.10377 9.96676C9.32252 9.10938 9.53927 8.25001 9.75802 7.39063C10.2913 5.28901 13.2639 4.89063 15.0393 4.52151C18.3538 3.83601 21.7131 3.83988 25.0159 4.61726C25.5863 4.75201 28.4534 5.19338 28.4378 6.01176C28.3946 8.26563 28.3536 10.5196 28.3126 12.7715Z" fill="#111111"/>
<path d="M38.0764 25.9219L46.7698 24.0781L64.0003 6.85163L57.1487 0L39.9222 17.2266L38.0764 25.9219ZM60.6957 6.85163L45.9222 21.6231L44.3968 20.0978L59.1703 5.32625L60.6957 6.85163ZM57.1488 3.30475L58.6742 4.83013L43.9007 19.6016L42.3753 18.0763L57.1488 3.30475ZM42.0295 18.7208L45.2775 21.9707L42.2522 22.6367L41.3615 21.7481L42.0295 18.7208Z" fill="#111111"/>
</svg>
