<svg width="64" height="64" viewBox="0 0 64 64" fill="none" xmlns="http://www.w3.org/2000/svg">
<g clip-path="url(#clip0_184_135)">
<path d="M59.0682 42.5693C58.1755 39.4717 57.2849 36.3721 56.3943 33.2744C56.1033 32.2666 55.8123 31.2588 55.5232 30.2491L53.1052 32.667C53.8884 35.751 54.6715 38.8351 55.4548 41.9209C55.8415 43.4404 54.8278 44.792 53.1618 44.2725C50.4333 43.1397 47.4254 42.3428 44.4704 42.1885C41.111 42.0167 37.6697 42.7042 34.5739 43.9952C34.2243 44.1397 31.8884 45.8213 31.7947 44.628C31.7439 41.8389 31.6912 39.0499 31.6404 36.2608C31.533 30.499 31.4275 24.7393 31.32 18.9776C31.3142 18.6474 32.111 18.4814 32.2752 18.4189C33.5799 17.9248 34.945 17.5849 36.32 17.3623C39.6697 16.8174 42.9665 17.0967 46.2419 17.9268C47.2849 18.1924 48.3787 18.5167 49.1482 19.1885L50.7029 17.6358C50.197 17.2529 49.6325 16.9288 49.029 16.6612C46.2498 15.4171 42.7224 14.9248 39.7068 14.8545C36.486 14.7784 33.195 15.2823 30.1482 16.3292C29.5544 16.5323 28.5837 15.9932 27.9763 15.8292C27.2614 15.6358 26.5388 15.4737 25.8103 15.3369C24.2048 15.0401 22.5759 14.8779 20.943 14.8526C17.8239 14.8037 14.6364 15.4014 11.6559 16.2979C10.9997 16.544 11.4684 16.3702 11.6149 16.3156C9.75553 17.0187 7.71641 18.1672 7.13053 20.2062C6.98403 20.7159 6.83566 21.2257 6.68916 21.7354C5.94691 24.3155 5.20478 26.8937 4.46253 29.4737C3.44691 33.0011 2.43328 36.5264 1.41766 40.0518C0.82778 42.1045 -0.342095 44.7413 0.0954053 46.8994C0.63053 49.5713 3.24391 50.8018 5.76928 50.288C6.6579 50.1044 7.47241 49.6943 8.32003 49.3915C9.73603 48.8837 11.1853 48.456 12.6599 48.1493C16.2107 47.4129 19.8162 47.8035 23.3064 48.704C24.0857 48.9052 27.0057 49.4092 27.0897 50.2802C27.1698 51.0927 28.1033 50.8719 28.6913 50.8719C29.2753 50.8719 29.8593 50.8719 30.4433 50.8719C30.9784 50.8719 31.8749 51.0574 32.3828 50.8348C32.8925 50.6141 32.5 50.0555 32.9804 49.8465C33.6347 49.5633 34.3124 49.3289 34.9922 49.118C36.582 48.6219 38.2148 48.2528 39.8633 48.0126C43.3887 47.4989 46.7207 47.8699 50.1055 48.9383C52.0879 49.5633 54.0098 50.7157 56.1603 50.3309C59.0919 49.8114 60.2912 46.8153 59.5217 44.1434C59.3827 43.6142 59.2185 43.0927 59.0682 42.5693ZM28.3123 25.8271C28.195 32.0204 28.0818 38.2118 27.9665 44.4052C27.9587 44.8193 27.8454 45.077 27.3845 45.0653C24.8767 43.575 21.9002 42.7137 19.0213 42.3504C15.6384 41.9227 12.3279 42.3837 9.08578 43.3895C8.07991 43.7 6.95491 44.3837 5.88853 44.3837C4.66778 44.3837 3.95878 43.2977 4.24403 42.1629C4.99015 39.2313 5.73228 36.2977 6.4784 33.3661C7.3534 29.9188 8.22641 26.4695 9.10341 23.0223C9.32216 22.1649 9.53891 21.3056 9.75766 20.4462C10.2909 18.3446 13.2635 17.9462 15.0389 17.577C18.3534 16.8915 21.7128 16.8954 25.0155 17.6728C25.5859 17.8076 28.453 18.2489 28.4374 19.0673C28.3943 21.3212 28.3533 23.5752 28.3123 25.8271Z" fill="#111111"/>
<path d="M38.076 38.9774L46.7694 37.1337L63.9999 19.9072L57.1483 13.0555L39.9218 30.2822L38.076 38.9774ZM60.6953 19.9072L45.9218 34.6787L44.3964 33.1533L59.1699 18.3818L60.6953 19.9072ZM57.1484 16.3603L58.6738 17.8857L43.9003 32.6572L42.3749 31.1318L57.1484 16.3603ZM42.0292 31.7763L45.2772 35.0263L42.2518 35.6923L41.3612 34.8037L42.0292 31.7763Z" fill="#111111"/>
</g>
<defs>
<clipPath id="clip0_184_135">
<rect width="64" height="64" fill="white"/>
</clipPath>
</defs>
</svg>
